<?xml version="1.0" encoding="UTF-8"?>
<svg id="Layer_1" xmlns="http://www.w3.org/2000/svg" version="1.1" viewBox="0 0 501.42 318.2">
  <!-- Generator: Adobe Illustrator 30.1.0, SVG Export Plug-In . SVG Version: 2.1.1 Build 136)  -->
  <defs>
    <style>
      .st0 {
        fill: #fff;
      }
    </style>
  </defs>
  <g>
    <path class="st0" d="M44.16,318.2c-9.61,0-17.57-1.36-23.88-4.07-6.32-2.72-11.01-6.45-14.04-11.17-3.04-4.73-4.56-10.05-4.56-15.95v-.85h10.58v1.83c0,4.49,1.05,8.29,3.16,11.38,2.11,3.1,5.51,5.43,10.22,7.03,4.7,1.59,10.87,2.39,18.52,2.39,6.66,0,12.08-.57,16.25-1.69,4.16-1.12,7.27-2.88,9.34-5.27,2.06-2.39,3.09-5.36,3.09-8.92,0-5.25-1.69-9.07-5.07-11.44-3.38-2.39-8.7-4.29-15.95-5.69l-20.87-3.8c-5.29-1.03-10.11-2.48-14.47-4.36-4.36-1.87-7.84-4.47-10.44-7.8-2.6-3.32-3.89-7.6-3.89-12.85,0-3.19.75-6.3,2.28-9.34,1.51-3.04,3.84-5.81,6.98-8.29,3.13-2.48,7.23-4.45,12.27-5.9,5.05-1.45,11.1-2.18,18.15-2.18,9.31,0,16.9,1.41,22.78,4.22s10.24,6.57,13.09,11.31c2.84,4.73,4.26,9.96,4.26,15.66v.85h-10.58v-1.69c0-4.49-1.03-8.31-3.09-11.44s-5.29-5.5-9.7-7.1c-4.41-1.59-10.24-2.39-17.5-2.39-6.47,0-11.81.59-16.02,1.76-4.21,1.18-7.33,2.9-9.33,5.2-2.01,2.3-3.01,5.17-3.01,8.63s.76,6.28,2.28,8.44c1.52,2.15,3.82,3.84,6.91,5.05,3.09,1.22,7.03,2.34,11.83,3.37l20.73,3.93c5.88,1.03,10.97,2.57,15.29,4.64,4.31,2.06,7.66,4.74,10.07,8.07,2.4,3.33,3.6,7.42,3.6,12.29,0,4.4-1.38,8.62-4.12,12.64-2.75,4.04-7.01,7.28-12.79,9.76s-13.23,3.73-22.35,3.73h-.02Z"/>
    <path class="st0" d="M127.52,318.2c-7.49,0-14.07-1.54-19.74-4.64-5.66-3.09-10.07-7.35-13.2-12.78-3.14-5.43-4.7-11.66-4.7-18.68s1.57-13.25,4.7-18.68c3.14-5.43,7.54-9.69,13.2-12.79,5.66-3.09,12.24-4.63,19.74-4.63s14.33,1.54,19.95,4.63c5.62,3.1,9.99,7.36,13.14,12.79,3.13,5.43,4.7,11.65,4.7,18.68s-1.57,13.25-4.7,18.68c-3.14,5.43-7.52,9.69-13.14,12.78-5.62,3.1-12.27,4.64-19.95,4.64ZM127.52,309.2c9.64,0,16.71-2.4,21.21-7.23,4.49-4.82,6.75-11.46,6.75-19.88s-2.25-15.06-6.75-19.88-11.57-7.24-21.21-7.24-16.46,2.41-21,7.24c-4.54,4.82-6.81,11.46-6.81,19.88s2.27,15.06,6.81,19.88,11.54,7.23,21,7.23Z"/>
    <g>
      <path class="st0" d="M188.98,225.76c-4.54,2.07-8.01,5.16-10.4,9.27-1.95,3.38-2.9,7.62-3.25,12.37h-11.43v8.56h11.1v60.83h9.97v-60.83h27.95v-8.56h-27.95c-.21-6.12,1.15-10.48,4.21-12.93,3.28-2.62,8.19-3.93,14.75-3.93h8.99v-7.87h-7.59c-6.37,0-11.82,1.03-16.37,3.09h.02Z"/>
      <rect class="st0" x="222.62" y="222.67" width="9.97" height="15.88"/>
      <rect class="st0" x="222.62" y="247.4" width="9.97" height="69.4"/>
    </g>
    <path class="st0" d="M265.88,318.2c-6.84,0-12.36-1.57-16.57-4.71-4.22-3.13-6.32-7.47-6.32-12.99,0-3.84.95-6.96,2.88-9.35,1.92-2.38,4.57-4.23,7.94-5.54s7.21-2.25,11.52-2.81l34.42-3.78v6.6l-31.33,3.51c-5.25.47-9.13,1.45-11.66,2.95s-3.8,4.08-3.8,7.73,1.22,6.12,3.65,7.93c2.44,1.83,6.28,2.74,11.52,2.74,5.71,0,10.82-.87,15.31-2.6,4.5-1.74,8.1-4.38,10.82-7.95,2.72-3.56,4.08-8.09,4.08-13.62l1.97.7v11.1h-1.97c-2.06,6.37-5.95,11.31-11.66,14.82-5.72,3.51-12.64,5.27-20.8,5.27h0ZM308.03,316.79h-8.99v-18.97l-.7-.56v-23.46c0-6.75-1.59-11.57-4.78-14.47s-8.62-4.36-16.3-4.36-13.04,1.38-16.93,4.15c-3.89,2.77-5.83,7.24-5.83,13.41v.56h-9.97v-.56c0-4.96,1.31-9.43,3.93-13.41,2.62-3.98,6.41-7.17,11.38-9.56,4.96-2.39,11-3.58,18.12-3.58s12.76,1.21,17.21,3.65c4.45,2.44,7.7,5.72,9.76,9.83,2.06,4.13,3.09,8.77,3.09,13.91v43.41h.01Z"/>
  </g>
  <g>
    <path class="st0" d="M47.63,61.39h31.72c-.19,3.6-.87,6.6-2.3,8.71-1.64,2.44-4.56,4.14-8.78,5.12-4.21.98-10.07,1.47-17.56,1.47-6.84,0-12.34-.9-16.5-2.73-4.17-1.83-7.19-4.8-9.06-8.92-1.87-4.13-2.81-9.65-2.81-16.58s.98-12.58,2.95-16.66c1.97-4.07,5.08-7.02,9.34-8.85,4.26-1.82,9.95-2.73,17.07-2.73,8.99,0,15.46,1.3,19.39,3.93,3.93,2.62,5.9,6.69,5.9,12.22v1.12h23.46v-1.12c0-7.59-1.97-14.07-5.9-19.46s-9.51-9.56-16.71-12.51C70.63,1.45,62.1-.02,52.27-.02,41.49-.02,32.2,1.97,24.38,5.95c-7.82,3.99-13.83,9.6-18.05,16.86C2.11,30.09,0,38.63,0,48.47s1.87,18.37,5.62,25.63c3.75,7.26,9.11,12.88,16.09,16.86,6.98,3.98,15.25,5.97,24.8,5.97,6.84,0,12.52-.94,17.07-2.81s8.12-4.45,10.75-7.73c2.62-3.27,4.5-6.97,5.62-11.09h1.13v20.22h19.53v-49.73h-52.96v15.59h-.02Z"/>
    <path class="st0" d="M166.83,27.54c-5.11-2.54-11.59-3.8-19.46-3.8s-14.35,1.25-20.02,3.72c-5.67,2.49-10.04,5.96-13.14,10.4s-4.64,9.57-4.64,15.38v.42h21.21v-.56c0-4.02,1.17-6.84,3.51-8.43s6.18-2.39,11.52-2.39c5.62,0,9.57.8,11.87,2.39,2.29,1.59,3.44,4.68,3.44,9.27v2.67l-30.2,3.09c-5.05.56-9.27,1.61-12.64,3.16-3.37,1.54-5.9,3.58-7.59,6.12-1.68,2.53-2.53,5.57-2.53,9.12,0,5.81,2.16,10.4,6.47,13.78,4.3,3.36,10.25,5.05,17.84,5.05s14.21-1.57,19.04-4.71c4.82-3.13,8.03-7.42,9.62-12.85h1.13v16.15h19.66v-41.31c0-6.17-1.24-11.54-3.72-16.09-2.48-4.54-6.28-8.07-11.38-10.6v.02ZM151.02,80.63c-3.28.94-7.45,1.41-12.5,1.41-3.09,0-5.39-.42-6.89-1.26-1.5-.85-2.25-2.21-2.25-4.08,0-1.68.58-2.93,1.75-3.72,1.17-.8,3.02-1.29,5.55-1.47l24.29-2.77c-.18,2.97-.92,5.48-2.44,7.33-1.74,2.1-4.24,3.64-7.52,4.56h0Z"/>
    <path class="st0" d="M248.52,25.15l-13.35,32.02-5.62,16.73h-1.41l-5.9-16.58-14.89-32.17h-23.88l34.37,70.63c-.79,1.55-1.74,2.73-2.9,3.39-1.31.75-3.28,1.13-5.9,1.13h-17.28v19.1h11.52c5.9,0,10.96-.54,15.18-1.61,4.21-1.09,7.81-3.01,10.82-5.76,3-2.77,5.62-6.59,7.87-11.46l34.84-75.43h-23.47Z"/>
  </g>
  <g>
    <path class="st0" d="M72.29,116.8c-5.33-2.66-11.66-4-18.96-4H4.16v94.12h21.07v-25.99h28.1c7.31,0,13.63-1.34,18.96-4,5.34-2.68,9.48-6.56,12.43-11.66,2.95-5.11,4.43-11.26,4.43-18.47s-1.48-13.35-4.43-18.41-7.09-8.92-12.43-11.59ZM64.08,158.81c-2.77,2.12-7.09,3.17-13,3.17h-25.85v-30.2h25.85c5.9,0,10.23,1.07,13,3.24,2.76,2.15,4.14,6.08,4.14,11.8s-1.38,9.9-4.14,12h0Z"/>
    <path class="st0" d="M151.99,138.94c-5.11-2.54-11.59-3.8-19.46-3.8s-14.35,1.25-20.02,3.72c-5.67,2.49-10.04,5.96-13.14,10.4s-4.64,9.57-4.64,15.38v.42h21.21v-.56c0-4.02,1.17-6.84,3.51-8.43,2.34-1.59,6.18-2.39,11.52-2.39,5.62,0,9.57.8,11.87,2.39,2.29,1.59,3.44,4.68,3.44,9.27v2.67l-30.2,3.09c-5.05.56-9.27,1.61-12.64,3.16-3.37,1.54-5.9,3.58-7.59,6.12-1.68,2.53-2.53,5.57-2.53,9.12,0,5.81,2.16,10.4,6.47,13.78,4.3,3.36,10.25,5.05,17.84,5.05s14.21-1.57,19.04-4.71c4.82-3.13,8.03-7.42,9.62-12.85h1.13v16.15h19.66v-41.31c0-6.17-1.24-11.54-3.72-16.09-2.48-4.54-6.28-8.07-11.38-10.6v.02ZM136.18,192.03c-3.28.94-7.45,1.41-12.5,1.41-3.09,0-5.39-.42-6.89-1.26-1.5-.85-2.25-2.21-2.25-4.08,0-1.68.58-2.93,1.75-3.72,1.17-.8,3.02-1.29,5.55-1.47l24.29-2.77c-.18,2.97-.92,5.48-2.44,7.33-1.74,2.1-4.24,3.64-7.52,4.56h.01Z"/>
    <path class="st0" d="M234.2,138.45c-3.23-2.21-7.52-3.3-12.86-3.3-4.68,0-8.67.87-11.94,2.6-3.28,1.74-5.88,4.13-7.8,7.17s-3.21,6.48-3.86,10.32h-1.26v-18.68h-19.53v70.38h21.07v-40.75c0-4.49.96-7.81,2.88-9.97,1.92-2.15,5.22-3.24,9.91-3.24,4.3,0,7.33.87,9.06,2.61,1.73,1.73,2.6,4.56,2.6,8.49v7.31h21.07v-11.66c0-4.58-.75-8.73-2.25-12.43-1.5-3.7-3.86-6.65-7.09-8.85h0Z"/>
    <path class="st0" d="M283.96,122.92h-21.07v13.63h-11.1v17.41h11.1v27.54c0,8.89,2.34,15.35,7.02,19.39,4.69,4.02,11.15,6.04,19.39,6.04h17.42v-18.97h-12.64c-3.65,0-6.25-.58-7.8-1.75-1.55-1.18-2.32-3.54-2.32-7.1v-25.15h22.76v-17.41h-22.76s0-13.63,0-13.63Z"/>
    <rect class="st0" x="314.58" y="136.55" width="21.07" height="70.38"/>
    <rect class="st0" x="314.58" y="112.8" width="21.07" height="16.58"/>
    <path class="st0" d="M403.86,139.07c-5.76-2.62-12.48-3.93-20.16-3.93s-14.59,1.5-20.44,4.49c-5.85,3-10.42,7.24-13.7,12.71-3.28,5.48-4.92,11.97-4.92,19.46,0,8.24,1.64,15.08,4.92,20.51s7.91,9.47,13.91,12.08c5.99,2.62,12.87,3.93,20.65,3.93s14.03-1.11,19.6-3.3c5.57-2.2,9.9-5.27,12.99-9.2s4.64-8.43,4.64-13.48v-1.55h-21.08v1.41c0,3.01-1.26,5.29-3.79,6.88-2.53,1.6-6.88,2.39-13.07,2.39-7.21,0-12.22-1.37-15.03-4.14-2.48-2.44-3.68-6.36-3.97-11.31h57.07c.19-1.22.33-2.34.42-3.37s.14-2.16.14-3.37c0-7.31-1.59-13.51-4.78-18.61-3.18-5.11-7.65-8.97-13.42-11.59h.02ZM383.28,151.58c6.55,0,11.28,1.17,14.19,3.51,2.55,2.06,3.78,5.47,4.09,9.83h-36.85c.53-3.87,1.58-7.14,3.69-9.2,2.81-2.77,7.77-4.14,14.89-4.14h-.01Z"/>
    <path class="st0" d="M495.52,172.79c-3.93-3.28-10.58-5.43-19.94-6.46l-15.03-1.83c-4.59-.65-7.61-1.43-9.06-2.32-1.45-.88-2.18-2.22-2.18-4,0-2.25.89-3.86,2.67-4.85,1.78-.98,5.29-1.47,10.54-1.47,4.3,0,7.61.33,9.91.98,2.29.66,3.84,1.61,4.64,2.88.79,1.27,1.19,2.88,1.19,4.85v.85h21.07v-.42c0-5.72-1.41-10.5-4.21-14.34-2.81-3.83-6.91-6.71-12.3-8.63s-11.92-2.88-19.6-2.88-14.63,1.01-19.74,3.02c-5.1,2.01-8.87,4.69-11.31,8-2.44,3.33-3.65,7.05-3.65,11.17,0,6,1.89,10.59,5.69,13.78,3.8,3.18,9.2,5.14,16.23,5.9l19.81,2.39c4.12.56,6.88,1.23,8.29,2.03,1.4.79,2.1,2.17,2.1,4.14,0,2.07-.91,3.59-2.74,4.57-1.82.98-5.55,1.47-11.17,1.47-5.99,0-10.13-.54-12.43-1.62-2.29-1.07-3.44-3.2-3.44-6.39v-1.26h-21.07v.41c0,8.15,3.18,14.45,9.55,18.9s15.45,6.68,27.26,6.68c7.31,0,13.53-.91,18.68-2.74,5.15-1.82,9.13-4.38,11.94-7.65,2.81-3.28,4.22-7.12,4.22-11.52,0-5.81-1.97-10.35-5.9-13.63h-.02Z"/>
  </g>
</svg>